# File created by Blade
# Date/Time:  Tue Sep 28 14:35:47 2010
#---------------------------------------------------------
:version 1.10
:name HOM
:units
  mass 1.0
  length 1.000000
  angle deg
:documentation
     Acclaim Skeleton File
:root
   axis xyz
   order TX TY TZ RX RY RZ
   position 0.000000 0.000000 0.000000
   orientation 0 0 0
:bonedata
   begin
      id 1
      name LeftUpLeg_dum
      direction 1.000000 0.000000 0.000000
      length 3.677894
      axis 0.0 0.0 0.0 xyz
   end
   begin
      id 2
      name RightUpLeg_dum
      direction -1.000000 0.000000 0.000000
      length 3.677894
      axis 0.0 0.0 0.0 xyz
   end
   begin
      id 3
      name Spine_dum
      direction 0.000000 1.000000 0.000000
      length 0.039370
      axis 0.0 0.0 0.0 xyz
   end
   begin
      id 4
      name LeftUpLeg
      direction 0.000000 -1.000000 0.000000
      length 18.389491
      axis 0.0 0.0 0.0 xyz
      dof rx ry rz
   end
   begin
      id 5
      name LeftLeg
      direction 0.000000 -1.000000 0.000000
      length 16.918313
      axis 0.0 0.0 0.0 xyz
      dof rx ry rz
   end
   begin
      id 6
      name LeftFoot
      direction 0.000000 -0.258819 0.965926
      length 6.436326
      axis 15.0 0.0 0.0 xyz
      dof rx ry rz
   end
   begin
      id 7
      name LeftToeBase
      direction 0.000000 0.000000 1.000000
      length 2.952750
      axis 0.0 0.0 0.0 xyz
      dof rx ry rz
   end
   begin
      id 8
      name RightUpLeg
      direction 0.000000 -1.000000 0.000000
      length 18.389491
      axis 0.0 0.0 0.0 xyz
      dof rx ry rz
   end
   begin
      id 9
      name RightLeg
      direction 0.000000 -1.000000 0.000000
      length 16.918313
      axis 0.0 0.0 0.0 xyz
      dof rx ry rz
   end
   begin
      id 10
      name RightFoot
      direction 0.000000 -0.258819 0.965926
      length 6.436326
      axis 15.0 0.0 0.0 xyz
      dof rx ry rz
   end
   begin
      id 11
      name RightToeBase
      direction 0.000000 0.000000 1.000000
      length 2.952750
      axis 0.0 0.0 0.0 xyz
      dof rx ry rz
   end
   begin
      id 12
      name Spine
      direction 0.000000 1.000000 0.000000
      length 9.194745
      axis 0.0 0.0 0.0 xyz
      dof rx ry rz
   end
   begin
      id 13
      name Spine1
      direction 0.000000 1.000000 0.000000
      length 0.000000
      axis 0.0 0.0 0.0 xyz
      dof rx ry rz
   end
   begin
      id 14
      name Spine1_dum1
      direction 0.000000 1.000000 0.000000
      length 9.194745
      axis 0.0 0.0 0.0 xyz
   end
   begin
      id 15
      name Spine1_dum2
      direction 0.000000 1.000000 0.000000
      length 9.194745
      axis 0.0 0.0 0.0 xyz
   end
   begin
      id 16
      name Spine1_dum3
      direction 0.000000 1.000000 0.000000
      length 9.194745
      axis 0.0 0.0 0.0 xyz
   end
   begin
      id 17
      name Neck
      direction 0.000000 1.000000 0.000000
      length 4.229598
      axis 0.0 0.0 0.0 xyz
      dof rx ry rz
   end
   begin
      id 18
      name Head
      direction 0.000000 1.000000 0.000000
      length 4.527550
      axis 0.0 0.0 0.0 xyz
      dof rx ry rz
   end
   begin
      id 19
      name LeftShoulder
      direction 1.000000 -0.000004 0.000000
      length 5.516839
      axis 0.0 0.0 -90.0 xyz
      dof rx ry rz
   end
   begin
      id 20
      name LeftArm
      direction 1.000000 -0.000004 0.000000
      length 11.033679
      axis 0.0 0.0 -90.0 xyz
      dof rx ry rz
   end
   begin
      id 21
      name LeftForeArm
      direction 1.000000 -0.000004 0.000000
      length 10.114232
      axis 0.0 0.0 -90.0 xyz
      dof rx ry rz
   end
   begin
      id 22
      name LeftHand
      direction 0.000000 0.000000 0.000000
      length 0.000000
      axis 0.0 0.0 -90.0 xyz
      dof rx ry rz
   end
   begin
      id 23
      name LeftHand_dum1
      direction 0.000000 0.000000 0.000000
      length 0.000000
      axis 0.0 0.0 -90.0 xyz
   end
   begin
      id 24
      name LeftHand_dum2
      direction 1.000000 -0.000004 0.000000
      length 3.937000
      axis 0.0 0.0 -90.0 xyz
   end
   begin
      id 25
      name LeftHandThumb
      direction 0.000000 0.000000 1.000000
      length 3.937000
      axis 0.0 0.0 -90.0 xyz
      dof rx ry rz
   end
   begin
      id 26
      name RightShoulder
      direction -1.000000 -0.000004 0.000000
      length 5.516839
      axis 0.0 0.0 90.0 xyz
      dof rx ry rz
   end
   begin
      id 27
      name RightArm
      direction -1.000000 -0.000004 0.000000
      length 11.033679
      axis 0.0 0.0 90.0 xyz
      dof rx ry rz
   end
   begin
      id 28
      name RightForeArm
      direction -1.000000 -0.000004 0.000000
      length 10.114232
      axis 0.0 0.0 90.0 xyz
      dof rx ry rz
   end
   begin
      id 29
      name RightHand
      direction 0.000000 0.000000 0.000000
      length 0.000000
      axis 0.0 0.0 90.0 xyz
      dof rx ry rz
   end
   begin
      id 30
      name RightHand_dum1
      direction 0.000000 0.000000 0.000000
      length 0.000000
      axis 0.0 0.0 90.0 xyz
   end
   begin
      id 31
      name RightHand_dum2
      direction -1.000000 -0.000004 0.000000
      length 5.393690
      axis 0.0 0.0 90.0 xyz
   end
   begin
      id 32
      name RightHandThumb
      direction 0.000000 0.000000 1.000000
      length 3.937000
      axis 0.0 0.0 90.0 xyz
      dof rx ry rz
   end
:hierarchy
   begin
      root LeftUpLeg_dum RightUpLeg_dum Spine_dum
      LeftUpLeg_dum LeftUpLeg
      RightUpLeg_dum RightUpLeg
      Spine_dum Spine
      LeftUpLeg LeftLeg
      LeftLeg LeftFoot
      LeftFoot LeftToeBase
      RightUpLeg RightLeg
      RightLeg RightFoot
      RightFoot RightToeBase
      Spine Spine1
      Spine1 Spine1_dum1 Spine1_dum2 Spine1_dum3
      Spine1_dum1 Neck
      Spine1_dum2 LeftShoulder
      Spine1_dum3 RightShoulder
      Neck Head
      LeftShoulder LeftArm
      LeftArm LeftForeArm
      LeftForeArm LeftHand
      LeftHand LeftHand_dum1 LeftHand_dum2
      LeftHand_dum1 LeftHandThumb
      RightShoulder RightArm
      RightArm RightForeArm
      RightForeArm RightHand
      RightHand RightHand_dum1 RightHand_dum2
      RightHand_dum1 RightHandThumb
   end

# File created by Blade
# Date/Time:  Tue Sep 28 14:35:42 2010
# Frame Rate: 200.000 fps
#------------------------------------------------------
:FULLY-SPECIFIED
:DEGREES
963
root  1.293365 37.186804 75.483388 3.725491 6.384337 -6.779145
LeftUpLeg  -15.075238 10.038037 10.232098
LeftLeg  62.334716 -0.000000 -0.000000
LeftFoot  16.468919 14.338192 15.127130
LeftToeBase  -13.696284 0.000000 -0.000000
RightUpLeg  -23.402773 -23.650545 14.693441
RightLeg  24.671811 -0.000000 0.000000
RightFoot  4.529181 -1.385505 -19.012845
RightToeBase  -9.058112 0.000000 -0.000000
Spine  -15.547310 -4.680524 6.080473
Spine1  19.008809 -5.793297 10.172152
Neck  17.889562 2.836787 -9.308995
Head  -5.931702 1.698125 1.538816
LeftShoulder  -6.517652 -10.496676 -29.808429
LeftArm  -0.601073 48.634531 -40.622332
LeftForeArm  23.743464 -0.000000 0.000000
LeftHand  3.314676 1.982275 -4.659094
LeftHandThumb  0.000000 -0.000000 0.000000
RightShoulder  0.037314 7.903286 21.141333
RightArm  -2.828067 -42.570901 40.202096
RightForeArm  22.000924 -0.000000 0.000000
RightHand  4.294324 8.535287 2.670769
RightHandThumb  0.000000 -0.000000 0.000000
964
root  1.270590 37.215632 75.651940 3.682743 6.357442 -6.769132
LeftUpLeg  -15.568775 10.285542 10.214823
LeftLeg  62.699320 -0.000000 -0.000000
LeftFoot  16.132389 14.410690 15.340063
LeftToeBase  -13.775762 0.000000 -0.000000
RightUpLeg  -22.975659 -23.728018 14.610191
RightLeg  24.489153 -0.000000 0.000000
RightFoot  4.352735 -1.312977 -18.864247
RightToeBase  -8.840512 0.000000 -0.000000
Spine  -15.569955 -4.578820 6.082007
Spine1  19.030384 -5.703651 10.099684
Neck  17.941350 2.779304 -9.290544
Head  -5.841063 1.622357 1.555989
LeftShoulder  -6.548962 -10.534834 -29.880593
LeftArm  -0.749970 49.301831 -40.617804
LeftForeArm  23.675099 -0.000000 0.000000
LeftHand  3.379883 2.443347 -4.809310
LeftHandThumb  0.000000 -0.000000 0.000000
RightShoulder  0.065379 7.784861 21.056555
RightArm  -2.681239 -42.286734 40.098151
RightForeArm  22.323704 -0.000000 0.000000
RightHand  4.262906 8.943178 2.562858
RightHandThumb  0.000000 -0.000000 0.000000
965
root  1.247750 37.247421 75.814322 3.644271 6.336927 -6.763312
LeftUpLeg  -16.015405 10.445182 10.170307
LeftLeg  62.889585 -0.000000 -0.000000
LeftFoot  15.724735 14.597374 15.520294
LeftToeBase  -13.603085 0.000000 -0.000000
RightUpLeg  -22.595813 -23.723914 14.518221
RightLeg  24.363622 -0.000000 0.000000
RightFoot  4.338401 -1.283064 -18.750125
RightToeBase  -9.193778 0.000000 -0.000000
Spine  -15.569838 -4.486030 6.080704
Spine1  19.079050 -5.624137 10.034997
Neck  17.979317 2.934001 -9.231620
Head  -5.889961 1.790315 1.564343
LeftShoulder  -6.641344 -10.377188 -29.951150
LeftArm  -0.721816 49.544946 -40.548834
LeftForeArm  23.721517 -0.000000 0.000000
LeftHand  3.156413 2.814400 -4.726182
LeftHandThumb  0.000000 -0.000000 0.000000
RightShoulder  0.122094 7.869048 20.994412
RightArm  -2.629761 -42.156454 40.068024
RightForeArm  22.511836 -0.000000 0.000000
RightHand  4.414308 9.255520 2.407687
RightHandThumb  0.000000 -0.000000 0.000000
966
root  1.231904 37.279887 75.964815 3.597875 6.288938 -6.751237
LeftUpLeg  -16.480335 10.603029 10.115326
LeftLeg  63.074728 -0.000000 -0.000000
LeftFoot  15.392437 14.648396 15.610595
LeftToeBase  -14.274658 0.000000 -0.000000
RightUpLeg  -22.225043 -23.673351 14.406979
RightLeg  24.262338 -0.000000 0.000000
RightFoot  4.238517 -1.237320 -18.820348
RightToeBase  -8.933199 0.000000 -0.000000
Spine  -15.566740 -4.389703 6.076491
Spine1  19.106574 -5.537477 9.974583
Neck  18.003513 2.794656 -9.312349
Head  -5.630832 1.424596 1.710071
LeftShoulder  -6.689087 -10.373017 -29.995432
LeftArm  -0.775177 49.880226 -40.521327
LeftForeArm  23.685348 -0.000000 0.000000
LeftHand  3.155401 3.703092 -5.353211
LeftHandThumb  0.000000 -0.000000 0.000000
RightShoulder  0.208839 8.024630 20.913029
RightArm  -2.591034 -42.101390 40.027829
RightForeArm  22.720949 -0.000000 0.000000
RightHand  4.227747 8.407923 2.578703
RightHandThumb  0.000000 -0.000000 0.000000
967
root  1.207720 37.306454 76.137947 3.569992 6.236942 -6.729056
LeftUpLeg  -16.960890 10.875225 10.054184
LeftLeg  63.323341 -0.000000 -0.000000
LeftFoot  15.084124 14.740173 16.026141
LeftToeBase  -14.414448 0.000000 -0.000000
RightUpLeg  -21.788470 -23.810058 14.326120
RightLeg  24.020865 -0.000000 0.000000
RightFoot  4.089672 -1.116467 -18.631730
RightToeBase  -8.956112 0.000000 -0.000000
Spine  -15.580066 -4.267228 6.070131
Spine1  19.158921 -5.428892 9.892149
Neck  18.195865 2.767571 -9.260182
Head  -6.063219 1.666527 1.562893
LeftShoulder  -6.772046 -10.348864 -30.062929
LeftArm  -0.870803 50.409139 -40.513544
LeftForeArm  23.640164 -0.000000 0.000000
LeftHand  3.290739 3.884855 -4.566058
LeftHandThumb  0.000000 -0.000000 0.000000
RightShoulder  0.227356 7.862338 20.815501
RightArm  -2.452591 -41.816076 39.951144
RightForeArm  23.067000 -0.000000 0.000000
RightHand  4.556063 9.438400 2.053249
RightHandThumb  0.000000 -0.000000 0.000000
968
root  1.188803 37.340602 76.283542 3.533567 6.188161 -6.715439
LeftUpLeg  -17.380432 10.960265 9.985153
LeftLeg  63.343669 -0.000000 -0.000000
LeftFoot  14.369682 14.928429 15.697835
LeftToeBase  -14.313703 0.000000 -0.000000
RightUpLeg  -21.458952 -23.809318 14.252130
RightLeg  23.929552 -0.000000 0.000000
RightFoot  4.092334 -1.073002 -18.732831
RightToeBase  -9.050549 0.000000 -0.000000
Spine  -15.570180 -4.172148 6.063056
Spine1  19.176732 -5.341256 9.831831
Neck  18.188939 2.599741 -9.254938
Head  -5.757714 1.429774 1.694061
LeftShoulder  -6.857748 -10.243383 -30.089151
LeftArm  -0.853526 50.597099 -40.451957
LeftForeArm  23.647580 -0.000000 0.000000
LeftHand  3.236459 4.229074 -5.031624
LeftHandThumb  0.000000 -0.000000 0.000000
RightShoulder  0.300244 8.010234 20.743609
RightArm  -2.415314 -41.718188 39.929927
RightForeArm  23.278739 -0.000000 0.000000
RightHand  4.406768 8.729546 2.150171
RightHandThumb  0.000000 -0.000000 0.000000
969
root  1.165742 37.367921 76.444593 3.508570 6.134033 -6.696057
LeftUpLeg  -17.799014 11.178955 9.904870
LeftLeg  63.376631 -0.000000 -0.000000
LeftFoot  13.900118 15.126229 16.054851
LeftToeBase  -14.342976 0.000000 -0.000000
RightUpLeg  -21.084940 -23.852237 14.163088
RightLeg  23.772347 -0.000000 0.000000
RightFoot  4.044321 -1.015508 -18.504366
RightToeBase  -9.287947 0.000000 -0.000000
Spine  -15.560149 -4.051310 6.053277
Spine1  19.226476 -5.232280 9.758113
Neck  18.164154 2.616293 -9.222429
Head  -5.894133 1.399792 1.701510
LeftShoulder  -6.952118 -10.173672 -30.143132
LeftArm  -0.909819 50.911162 -40.460313
LeftForeArm  23.644714 -0.000000 0.000000
LeftHand  3.174195 4.444612 -4.091538
LeftHandThumb  0.000000 -0.000000 0.000000
RightShoulder  0.347885 7.947209 20.662633
RightArm  -2.317110 -41.499217 39.886997
RightForeArm  23.528356 -0.000000 0.000000
RightHand  4.784675 9.525956 1.681600
RightHandThumb  0.000000 -0.000000 0.000000
970
root  1.149581 37.397982 76.595701 3.473100 6.065078 -6.675038
LeftUpLeg  -18.234370 11.316511 9.828178
LeftLeg  63.384558 -0.000000 -0.000000
LeftFoot  13.329109 15.213966 15.747410
LeftToeBase  -14.696975 0.000000 -0.000000
RightUpLeg  -20.705996 -23.789146 14.048168
RightLeg  23.648113 -0.000000 0.000000
RightFoot  3.931900 -0.962892 -18.575483
RightToeBase  -9.066865 0.000000 -0.000000
Spine  -15.562589 -3.943435 6.036066
Spine1  19.241085 -5.128394 9.689470
Neck  18.264797 2.496695 -9.208577
Head  -5.692689 1.352312 1.700734
LeftShoulder  -7.030454 -10.145488 -30.156091
LeftArm  -0.949739 51.188237 -40.425458
LeftForeArm  23.571603 -0.000000 0.000000
LeftHand  3.207934 5.073777 -4.679059
LeftHandThumb  0.000000 -0.000000 0.000000
RightShoulder  0.437036 8.128144 20.576895
RightArm  -2.342256 -41.544604 39.903282
RightForeArm  23.785596 -0.000000 0.000000
RightHand  4.469823 8.861049 1.855410
RightHandThumb  0.000000 -0.000000 0.000000
971
root  1.126027 37.425126 76.753488 3.452571 5.999534 -6.646815
LeftUpLeg  -18.641455 11.564645 9.719587
LeftLeg  63.345238 -0.000000 -0.000000
LeftFoot  12.874086 15.453050 16.176893
LeftToeBase  -14.733579 0.000000 -0.000000
RightUpLeg  -20.342737 -23.871240 13.966129
RightLeg  23.481219 -0.000000 0.000000
RightFoot  3.889115 -0.888686 -18.370131
RightToeBase  -9.365185 0.000000 -0.000000
Spine  -15.546198 -3.810109 6.025044
Spine1  19.295196 -5.007583 9.615330
Neck  18.258569 2.503916 -9.197612
Head  -5.915576 1.288950 1.738961
LeftShoulder  -7.151264 -10.032179 -30.195403
LeftArm  -0.949781 51.345492 -40.413881
LeftForeArm  23.653641 -0.000000 0.000000
LeftHand  3.036343 4.785245 -3.634881
LeftHandThumb  0.000000 -0.000000 0.000000
RightShoulder  0.488756 8.062483 20.491097
RightArm  -2.239015 -41.316307 39.853248
RightForeArm  24.018697 -0.000000 0.000000
RightHand  4.893968 10.017947 1.632754
RightHandThumb  0.000000 -0.000000 0.000000
972
root  1.105745 37.452993 76.908363 3.429149 5.924744 -6.618623
LeftUpLeg  -19.036402 11.722893 9.626126
LeftLeg  63.236059 -0.000000 -0.000000
LeftFoot  12.340262 15.611357 16.077114
LeftToeBase  -15.292664 0.000000 -0.000000
RightUpLeg  -19.965277 -23.859691 13.863270
RightLeg  23.313790 -0.000000 0.000000
RightFoot  3.820215 -0.827027 -18.311349
RightToeBase  -9.432338 0.000000 -0.000000
Spine  -15.550703 -3.683586 6.005539
Spine1  19.326509 -4.887561 9.533684
Neck  18.315344 2.479905 -9.181663
Head  -5.890902 1.257908 1.782199
LeftShoulder  -7.249354 -9.993166 -30.210179
LeftArm  -0.929338 51.451866 -40.357018
LeftForeArm  23.524723 -0.000000 0.000000
LeftHand  3.169937 5.145439 -3.679194
LeftHandThumb  0.000000 -0.000000 0.000000
RightShoulder  0.564149 8.121134 20.407388
RightArm  -2.193276 -41.243520 39.837490
RightForeArm  24.251134 -0.000000 0.000000
RightHand  4.969603 10.006251 1.599573
RightHandThumb  0.000000 -0.000000 0.000000
973
root  1.089364 37.478830 77.049960 3.392346 5.854799 -6.598467
LeftUpLeg  -19.456415 11.795806 9.522182
LeftLeg  63.084222 -0.000000 -0.000000
LeftFoot  11.846961 15.859495 16.102756
LeftToeBase  -15.238385 0.000000 -0.000000
RightUpLeg  -19.645680 -23.725066 13.742363
RightLeg  23.278127 -0.000000 0.000000
RightFoot  3.835139 -0.861260 -18.123637
RightToeBase  -9.698907 0.000000 -0.000000
Spine  -15.511246 -3.575969 5.985004
Spine1  19.384540 -4.787279 9.468103
Neck  18.320730 2.273593 -9.200136
Head  -5.978039 1.030453 1.746959
LeftShoulder  -7.356511 -9.853878 -30.226039
LeftArm  -0.833760 51.320947 -40.275602
LeftForeArm  23.448503 -0.000000 0.000000
LeftHand  3.239270 4.535347 -3.765498
LeftHandThumb  0.000000 -0.000000 0.000000
RightShoulder  0.663288 8.322146 20.330882
RightArm  -2.203223 -41.310416 39.837211
RightForeArm  24.496591 -0.000000 0.000000
RightHand  5.102638 9.930284 1.446652
RightHandThumb  0.000000 -0.000000 0.000000
974
root  1.065970 37.503153 77.216465 3.388909 5.763175 -6.546853
LeftUpLeg  -19.846089 12.012493 9.420691
LeftLeg  62.911397 -0.000000 -0.000000
LeftFoot  11.420437 15.934409 16.052058
LeftToeBase  -15.571428 0.000000 -0.000000
RightUpLeg  -19.185249 -23.856135 13.643244
RightLeg  22.941100 -0.000000 0.000000
RightFoot  3.591400 -0.693507 -18.171245
RightToeBase  -9.393946 0.000000 -0.000000
Spine  -15.553383 -3.401627 5.952757
Spine1  19.375654 -4.613288 9.368355
Neck  18.519154 2.458966 -9.112419
Head  -6.035954 1.427186 1.719098
LeftShoulder  -7.521710 -9.783558 -30.202408
LeftArm  -0.806486 51.326080 -40.198018
LeftForeArm  23.471134 -0.000000 0.000000
LeftHand  3.227199 5.384251 -3.624456
LeftHandThumb  0.000000 -0.000000 0.000000
RightShoulder  0.688117 8.083179 20.227516
RightArm  -1.996119 -40.981720 39.734179
RightForeArm  24.780757 -0.000000 0.000000
RightHand  4.997582 9.964192 1.583809
RightHandThumb  0.000000 -0.000000 0.000000
